<svg version="1.1" viewBox="0 0 108 192" xmlns="http://www.w3.org/2000/svg">
    <g>
        <path d="m16 0c-4.1221 0-7.5433 1.7965-10.479 4.5215l19.479 19.479h58l19.479-19.479c-2.9352-2.725-6.4785-4.5215-10.479-4.5215z" style="fill:#ff0000;paint-order:markers fill stroke;stroke-linejoin:round;stroke-width:2"/>
        <path d="m103.48 5.5215-19.479 19.479v58l12 12 12-12v-67c0-3.8923-1.7965-7.5433-4.5215-10.479z" style="fill:#ff0000;paint-order:markers fill stroke;stroke-linejoin:round;stroke-width:2"/>
        <path d="m96 97-12 12v58l19.396 19.396c2.7714-2.9944 4.6035-6.3295 4.6035-10.396v-67z" style="fill:#ff0000;paint-order:markers fill stroke;stroke-linejoin:round;stroke-width:2"/>
        <path d="m25 168-19.479 19.479c2.9352 2.725 5.8967 4.5215 10.479 4.5215h76c4 0 7.4766-1.8589 10.4-4.5996l-19.4-19.4z" style="fill:#ff0000;paint-order:markers fill stroke;stroke-linejoin:round;stroke-width:2"/>
        <path d="m12 97-12 12v67c0 3.7774 1.7965 7.5433 4.5215 10.479l19.479-19.479v-58z" style="fill:#ff0000;paint-order:markers fill stroke;stroke-linejoin:round;stroke-width:2"/>
        <path d="m4.5215 5.5215c-2.725 2.9352-4.5215 6.3564-4.5215 10.479v67l12 12 12-12v-58z" style="fill:#ff0000;paint-order:markers fill stroke;stroke-linejoin:round;stroke-width:2"/>
        <path d="m25 84-12 12 12 12h58l12-12-12-12z" style="fill:#ff0000;paint-order:markers fill stroke;stroke-linejoin:round;stroke-width:2"/>
        <rect y="168" width="24" height="24" style="fill:#00ff00;paint-order:markers fill stroke;stroke-linejoin:round;stroke-width:2"/>
        <g>
            <rect y="108" width="24" height="24"/>
            <rect y="60" width="24" height="24"/>
        </g>
    </g>
</svg>
