<svg version="1.1" viewBox="0 0 108 192" xmlns="http://www.w3.org/2000/svg">
    <g>
        <g>
            <path d="m23.5 0h-11.5c-7.9939 0.015236-12 4.0065-12 12v11.5h23.5z" />
            <path d="m24.5 0v24h59v-24z" />
            <path d="m84.5 0h11.5c8 0 12 4.0079 12 12v11.5h-23.5z" />
            <path d="m84 24.5v58.793l12 12 12-12v-58.793z" />
            <path d="m108 84.707-11.293 11.293 11.293 11.293z" />
            <path d="m96 96.707-12 12v58.793h24v-58.793z" />
            <path d="m84.5 192h11.5c8.0381 0.11738 12-4 12-12l-0.0254-11.5h-23.475z" />
            <path d="m24.5 168v24h59v-24z" />
            <path d="m0 168v12c0 7.9997 4.0145 11.68 12 11.5l11.5-0.0254v-23.475z" />
            <path d="m12 96.707-12 12v58.793h24v-58.793z" />
            <path d="m0 84.707v22.586l11.293-11.293z" />
            <path d="m0 24.5v58.793l12 12 12-12v-58.793z" />
            <path d="m24.707 84-12 12 12 12h58.586l12-12-12-12z" />
            <g>
                <ellipse cx="12" cy="72" rx="12" ry="12" style="fill:#0000ff;paint-order:markers fill stroke;stroke-linejoin:round;stroke-width:2.244"/>
                <ellipse cx="12" cy="120" rx="12" ry="12" style="fill:#0000ff;paint-order:markers fill stroke;stroke-linejoin:round;stroke-width:2.244"/>
            </g>
            <ellipse cx="12" cy="180" rx="12" ry="12" style="fill:#00ff00;paint-order:markers fill stroke;stroke-linejoin:round;stroke-width:2.244"/>
        </g>
    </g>
</svg>
